<?xml version="1.0" encoding="utf-8"?>
<!-- Generator: Adobe Illustrator 27.0.1, SVG Export Plug-In . SVG Version: 6.00 Build 0)  -->
<svg version="1.1" id="Layer_1" xmlns="http://www.w3.org/2000/svg" xmlns:xlink="http://www.w3.org/1999/xlink" x="0px" y="0px"
	 viewBox="0 0 52.9 52.9" style="enable-background:new 0 0 52.9 52.9;" xml:space="preserve">
<style type="text/css">
	.st0{fill:#F00000;}
	.st1{fill:#FFFFFF;}
</style>
<path class="st0" d="M0,26.5C0,11.8,11.8,0,26.5,0c14.6,0,26.5,11.8,26.5,26.5S41.1,52.9,26.5,52.9l0,0C11.8,52.9,0,41.1,0,26.5z
	 M26.5,39.9c7.4,0,13.4-6,13.4-13.4S33.9,13,26.5,13S13,19,13,26.5c0,0,0,0,0,0C13,33.9,19,39.9,26.5,39.9z"/>
<path class="st1" d="M17.9,13c5-3.4,12.7-3.2,17.1,0c1.2,0.8,2.4,1.7,3.3,2.8l6.1-5.1c-3.3-3.8-7.8-6.5-12.8-7.6
	c-8.5-1.9-17.4,1-23.1,7.6l5.9,5.2C15.5,14.8,16.6,13.8,17.9,13z M31.6,41.6c-6.1,2.2-13,0.3-17.2-4.5l-6,5.3
	c8.8,9.9,23.9,10.9,33.9,2.1c0.8-0.7,1.5-1.4,2.1-2.1l-6.1-5.2C36.6,39.1,34.2,40.7,31.6,41.6z"/>
</svg>
